# xmcd
#
# Track frame offsets: 
#        150
#        14234
#        30894
#        47033
#        62566
#        82766
#        94811
#        111645
#        128871
#        143796
#        157237
#
# Disc length: 2285 seconds
#
# Revision: 0
# Processed by: cddbd v1.5.2PL0 Copyright (c) Steve Scherf et al.
# Submitted via: ExactAudioCopyFreeDBPlugin 1.0
#
DISCID=9308eb0b
DTITLE=Nancy Lee Baxter - Touch and Go
DYEAR=1999
DGENRE=Country
TTITLE0=Harvest moon
TTITLE1=Breakdown
TTITLE2=Trouch and go
TTITLE3=Leave well enough alone
TTITLE4=The worst that could happen
TTITLE5=I can't rescue you
TTITLE6=Never mine to lose
TTITLE7=Terrarium
TTITLE8=Easy money
TTITLE9=She doesn't ask
TTITLE10=Flower in a rocky land
EXTD=
EXTT0=
EXTT1=
EXTT2=
EXTT3=
EXTT4=
EXTT5=
EXTT6=
EXTT7=
EXTT8=
EXTT9=
EXTT10=
PLAYORDER=
